<svg width="373" height="91" viewBox="0 0 373 91" fill="none" xmlns="http://www.w3.org/2000/svg">
<path fill-rule="evenodd" clip-rule="evenodd" d="M45.2758 81.4964C65.2799 81.4964 81.4964 65.2799 81.4964 45.2758C81.4964 25.2717 65.2799 9.05516 45.2758 9.05516C25.2717 9.05516 9.05516 25.2717 9.05516 45.2758C9.05516 65.2799 25.2717 81.4964 45.2758 81.4964ZM45.2758 90.5516C70.2809 90.5516 90.5516 70.2809 90.5516 45.2758C90.5516 20.2707 70.2809 0 45.2758 0C20.2707 0 0 20.2707 0 45.2758C0 70.2809 20.2707 90.5516 45.2758 90.5516Z" fill="#9958BF"/>
<path d="M226.707 64.2916C226.308 64.2916 225.982 64.1648 225.729 63.9113C225.475 63.6577 225.349 63.3317 225.349 62.9333V27.6182C225.349 27.2197 225.475 26.8938 225.729 26.6402C225.982 26.3867 226.308 26.2599 226.707 26.2599H241.485C246.157 26.2599 249.834 27.3465 252.514 29.5197C255.231 31.6568 256.589 34.6993 256.589 38.6474C256.589 41.219 255.955 43.3923 254.687 45.1671C253.456 46.9419 251.826 48.282 249.798 49.1876L257.295 62.553C257.404 62.7703 257.458 62.9695 257.458 63.1506C257.458 63.4404 257.331 63.712 257.078 63.9656C256.861 64.1829 256.589 64.2916 256.263 64.2916H249.091C248.403 64.2916 247.896 64.1286 247.57 63.8026C247.244 63.4404 247.009 63.1144 246.864 62.8246L240.67 50.8718H235.074V62.9333C235.074 63.3317 234.947 63.6577 234.693 63.9113C234.44 64.1648 234.114 64.2916 233.716 64.2916H226.707ZM235.074 43.2112H241.376C243.079 43.2112 244.346 42.7946 245.179 41.9615C246.049 41.1285 246.483 39.9875 246.483 38.5387C246.483 37.1261 246.067 35.9851 245.234 35.1158C244.437 34.2465 243.151 33.8119 241.376 33.8119H235.074V43.2112Z" fill="#A38EAE"/>
<path d="M278.293 64.8349C274.961 64.8349 272.063 64.2916 269.6 63.2049C267.137 62.1183 265.217 60.4884 263.841 58.3152C262.464 56.1057 261.704 53.3529 261.559 50.0569C261.523 48.4994 261.505 46.9419 261.505 45.3844C261.505 43.8269 261.523 42.2513 261.559 40.6576C261.704 37.3977 262.464 34.6631 263.841 32.4536C265.253 30.2079 267.191 28.5237 269.654 27.4008C272.117 26.278 274.997 25.7166 278.293 25.7166C281.553 25.7166 284.414 26.278 286.877 27.4008C289.376 28.5237 291.332 30.2079 292.745 32.4536C294.157 34.6631 294.918 37.3977 295.027 40.6576C295.099 42.2513 295.135 43.8269 295.135 45.3844C295.135 46.9419 295.099 48.4994 295.027 50.0569C294.882 53.3529 294.121 56.1057 292.745 58.3152C291.368 60.4884 289.449 62.1183 286.986 63.2049C284.523 64.2916 281.625 64.8349 278.293 64.8349ZM278.293 57.0112C280.213 57.0112 281.77 56.4317 282.965 55.2726C284.197 54.1136 284.849 52.2663 284.921 49.7309C284.994 48.1372 285.03 46.634 285.03 45.2214C285.03 43.8088 284.994 42.3419 284.921 40.8206C284.849 39.1182 284.523 37.7418 283.943 36.6914C283.4 35.6048 282.639 34.808 281.661 34.3009C280.683 33.7938 279.561 33.5402 278.293 33.5402C277.061 33.5402 275.957 33.7938 274.979 34.3009C274.001 34.808 273.222 35.6048 272.642 36.6914C272.063 37.7418 271.737 39.1182 271.664 40.8206C271.628 42.3419 271.61 43.8088 271.61 45.2214C271.61 46.634 271.628 48.1372 271.664 49.7309C271.773 52.2663 272.425 54.1136 273.62 55.2726C274.816 56.4317 276.373 57.0112 278.293 57.0112Z" fill="#A38EAE"/>
<path d="M298.464 64.2916C298.174 64.2916 297.903 64.1829 297.649 63.9656C297.432 63.712 297.323 63.4404 297.323 63.1506C297.323 62.9695 297.341 62.8065 297.377 62.6616L310.145 27.7812C310.254 27.3827 310.471 27.0386 310.797 26.7489C311.159 26.4229 311.648 26.2599 312.264 26.2599H320.305C320.921 26.2599 321.392 26.4229 321.718 26.7489C322.08 27.0386 322.315 27.3827 322.424 27.7812L335.137 62.6616C335.21 62.8065 335.246 62.9695 335.246 63.1506C335.246 63.4404 335.119 63.712 334.866 63.9656C334.648 64.1829 334.377 64.2916 334.051 64.2916H327.368C326.825 64.2916 326.408 64.1648 326.119 63.9113C325.865 63.6215 325.702 63.3679 325.63 63.1506L323.511 57.6089H309.004L306.94 63.1506C306.867 63.3679 306.704 63.6215 306.451 63.9113C306.197 64.1648 305.763 64.2916 305.147 64.2916H298.464ZM311.232 49.7852H321.337L316.23 35.4418L311.232 49.7852Z" fill="#A38EAE"/>
<path d="M153.544 64.2916C153.146 64.2916 152.82 64.1649 152.566 63.9113C152.312 63.6578 152.186 63.3318 152.186 62.9333V27.6182C152.186 27.2198 152.312 26.8938 152.566 26.6403C152.82 26.3867 153.146 26.2599 153.544 26.2599H178.917C179.315 26.2599 179.641 26.3867 179.895 26.6403C180.148 26.8938 180.275 27.2198 180.275 27.6182V32.7253C180.275 33.1238 180.148 33.4497 179.895 33.7033C179.641 33.9568 179.315 34.0836 178.917 34.0836H161.585V41.4183H177.721C178.12 41.4183 178.446 41.5632 178.699 41.8529C178.953 42.1065 179.08 42.4325 179.08 42.8309V47.5577C179.08 47.9199 178.953 48.2459 178.699 48.5356C178.446 48.7892 178.12 48.916 177.721 48.916H161.585V56.468H179.351C179.75 56.468 180.076 56.5947 180.329 56.8483C180.583 57.1018 180.709 57.4278 180.709 57.8262V62.9333C180.709 63.3318 180.583 63.6578 180.329 63.9113C180.076 64.1649 179.75 64.2916 179.351 64.2916H153.544Z" fill="#A38EAE"/>
<path d="M197.539 64.2916C196.924 64.2916 196.435 64.1286 196.072 63.8026C195.71 63.4767 195.457 63.0963 195.312 62.6617L184.228 27.8899C184.156 27.7088 184.12 27.5458 184.12 27.4009C184.12 27.1111 184.228 26.8576 184.446 26.6403C184.699 26.3867 184.989 26.2599 185.315 26.2599H192.052C192.631 26.2599 193.084 26.4229 193.41 26.7489C193.736 27.0749 193.935 27.3828 194.008 27.6726L201.668 52.7735L209.383 27.6726C209.492 27.3828 209.691 27.0749 209.981 26.7489C210.307 26.4229 210.76 26.2599 211.339 26.2599H218.076C218.402 26.2599 218.674 26.3867 218.891 26.6403C219.145 26.8576 219.272 27.1111 219.272 27.4009C219.272 27.5458 219.235 27.7088 219.163 27.8899L208.08 62.6617C207.935 63.0963 207.681 63.4767 207.319 63.8026C206.993 64.1286 206.504 64.2916 205.852 64.2916H197.539Z" fill="#A38EAE"/>
<path fill-rule="evenodd" clip-rule="evenodd" d="M31.8247 63.9113C32.0782 64.1649 32.4042 64.2916 32.8026 64.2916H47.2003C50.7499 64.2916 53.7381 63.7664 56.1649 62.716C58.6279 61.6294 60.4933 59.9814 61.761 57.7719C63.0649 55.5625 63.7893 52.7735 63.9342 49.4049C63.9704 47.8475 63.9885 46.4711 63.9885 45.2758C63.9885 44.0805 63.9704 42.686 63.9342 41.0923C63.8256 37.8687 63.1011 35.1702 61.761 32.997C60.4208 30.7875 58.5011 29.1214 56.0019 27.9985C53.5027 26.8395 50.4783 26.2599 46.9287 26.2599H32.8026C32.4042 26.2599 32.0782 26.3867 31.8247 26.6403C31.5711 26.8938 31.4444 27.2198 31.4444 27.6182V34.0823H41.6537V34.0836H46.657C49.0476 34.0836 50.8405 34.6631 52.0358 35.8222C53.2673 36.945 53.9192 38.738 53.9917 41.201C54.0641 42.2151 54.1003 43.1388 54.1003 43.9718C54.1365 44.8049 54.1365 45.638 54.1003 46.4711C54.1003 47.3041 54.0641 48.2459 53.9917 49.2963C53.9554 50.9986 53.6657 52.375 53.1224 53.4254C52.6153 54.4758 51.8365 55.2546 50.7861 55.7617C49.772 56.2325 48.4861 56.468 46.9287 56.468H41.1696V56.4674H31.4444V62.9333C31.4444 63.3318 31.5711 63.6578 31.8247 63.9113Z" fill="#45BF7D"/>
<path fill-rule="evenodd" clip-rule="evenodd" d="M113.656 63.9113C113.91 64.1649 114.236 64.2916 114.634 64.2916H129.032C132.582 64.2916 135.57 63.7664 137.997 62.716C140.46 61.6294 142.325 59.9814 143.593 57.7719C144.897 55.5625 145.621 52.7735 145.766 49.4049C145.802 47.8475 145.82 46.4711 145.82 45.2758C145.82 44.0805 145.802 42.686 145.766 41.0923C145.657 37.8687 144.933 35.1702 143.593 32.997C142.253 30.7875 140.333 29.1214 137.834 27.9985C135.334 26.8395 132.31 26.2599 128.76 26.2599H114.634C114.236 26.2599 113.91 26.3867 113.656 26.6403C113.403 26.8938 113.276 27.2198 113.276 27.6182V34.0823H123.486V34.0836H128.489C130.879 34.0836 132.672 34.6631 133.868 35.8222C135.099 36.945 135.751 38.738 135.823 41.201C135.896 42.2151 135.932 43.1388 135.932 43.9718C135.968 44.8049 135.968 45.638 135.932 46.4711C135.932 47.3041 135.896 48.2459 135.823 49.2963C135.787 50.9986 135.497 52.375 134.954 53.4254C134.447 54.4758 133.668 55.2546 132.618 55.7617C131.604 56.2325 130.318 56.468 128.76 56.468H123.001V56.4674H113.276V62.9333C113.276 63.3318 113.403 63.6578 113.656 63.9113Z" fill="#A38EAE"/>
<path fill-rule="evenodd" clip-rule="evenodd" d="M339.917 63.9113C340.17 64.1649 340.496 64.2916 340.894 64.2916H355.292C358.842 64.2916 361.83 63.7664 364.257 62.716C366.72 61.6294 368.585 59.9814 369.853 57.7719C371.157 55.5625 371.881 52.7735 372.026 49.4049C372.062 47.8475 372.08 46.4711 372.08 45.2758C372.08 44.0805 372.062 42.686 372.026 41.0923C371.917 37.8687 371.193 35.1702 369.853 32.997C368.513 30.7875 366.593 29.1214 364.094 27.9985C361.595 26.8395 358.57 26.2599 355.021 26.2599H340.894C340.496 26.2599 340.17 26.3867 339.917 26.6403C339.663 26.8938 339.536 27.2198 339.536 27.6182V34.0823H349.746V34.0836H354.749C357.139 34.0836 358.932 34.6631 360.128 35.8222C361.359 36.945 362.011 38.738 362.084 41.201C362.156 42.2151 362.192 43.1388 362.192 43.9718C362.228 44.8049 362.228 45.638 362.192 46.4711C362.192 47.3041 362.156 48.2459 362.084 49.2963C362.047 50.9986 361.758 52.375 361.214 53.4254C360.707 54.4758 359.928 55.2546 358.878 55.7617C357.864 56.2325 356.578 56.468 355.021 56.468H349.261V56.4674H339.536V62.9333C339.536 63.3318 339.663 63.6578 339.917 63.9113Z" fill="#A38EAE"/>
<path d="M45.1196 45.2759C45.1196 47.446 43.3604 49.2053 41.1902 49.2053C39.02 49.2053 31.441 45.2759 31.441 45.2759C31.441 45.2759 39.02 41.3464 41.1902 41.3464C43.3604 41.3464 45.1196 43.1057 45.1196 45.2759Z" fill="#45BF7D"/>
<path d="M126.951 45.2759C126.951 47.446 125.192 49.2053 123.022 49.2053C120.852 49.2053 113.273 45.2759 113.273 45.2759C113.273 45.2759 120.852 41.3464 123.022 41.3464C125.192 41.3464 126.951 43.1057 126.951 45.2759Z" fill="#A38EAE"/>
<path d="M353.211 45.2759C353.211 47.446 351.452 49.2053 349.282 49.2053C347.112 49.2053 339.533 45.2759 339.533 45.2759C339.533 45.2759 347.112 41.3464 349.282 41.3464C351.452 41.3464 353.211 43.1057 353.211 45.2759Z" fill="#A38EAE"/>
</svg>
